# Blender v2.81 (sub 16) OBJ File: ''
# www.blender.org
mtllib map.mtl
o Cube.001
v 1.000000 1.000000 -1.000000
v 1.000000 -0.362887 -1.000000
v 1.000000 1.000000 1.000000
v 1.000000 -0.362887 1.000000
v -1.000000 1.000000 -1.000000
v -1.000000 -0.362887 -1.000000
v -1.000000 1.000000 1.000000
v -1.000000 -0.362887 1.000000
v 0.641543 0.377742 0.641543
v -0.641543 0.377742 0.641543
v 0.641543 0.377742 -0.641543
v -0.641543 0.377742 -0.641543
v -0.254909 1.000000 -1.000000
v 0.254909 1.000000 -1.000000
v -0.163535 0.377742 -0.641543
v 0.163535 0.377742 -0.641543
v -0.254909 0.995174 -0.660679
v 0.254909 0.995174 -0.660679
v -0.163535 0.372916 -0.302221
v 0.163535 0.372916 -0.302221
vt 0.625000 0.250000
vt 0.625000 0.000000
vt 0.625000 0.000000
vt 0.625000 0.250000
vt 0.375000 0.750000
vt 0.625000 0.750000
vt 0.625000 1.000000
vt 0.375000 1.000000
vt 0.375000 0.000000
vt 0.375000 0.250000
vt 0.125000 0.500000
vt 0.375000 0.500000
vt 0.125000 0.750000
vt 0.625000 0.500000
vt 0.625000 0.500000
vt 0.875000 0.500000
vt 0.875000 0.750000
vt 0.625000 0.750000
vt 0.625000 0.500000
vt 0.875000 0.500000
vt 0.625000 1.000000
vt 0.625000 0.250000
vt 0.625000 0.250000
vt 0.625000 0.250000
vt 0.625000 0.250000
vt 0.625000 0.500000
vt 0.625000 0.500000
vt 0.625000 0.500000
vt 0.875000 0.500000
vn 0.8665 0.4992 -0.0000
vn 0.0000 0.0000 1.0000
vn -1.0000 -0.0000 0.0000
vn 0.0000 -1.0000 0.0000
vn 1.0000 0.0000 0.0000
vn 0.0000 -0.0000 -1.0000
vn 0.0000 1.0000 -0.0000
vn -0.8665 0.4992 -0.0000
vn 0.0000 0.4992 -0.8665
vn -0.9892 -0.1465 -0.0021
vn 0.0000 0.4992 0.8665
vn 0.0000 0.9999 0.0142
vn 0.9892 -0.1465 -0.0021
vn 0.0000 -0.9999 -0.0142
usemtl Material.001

f 5/1/1 7/2/1 10/3/1 12/4/1
f 4/5/2 3/6/2 7/7/2 8/8/2
f 8/9/3 7/2/3 5/1/3 6/10/3
f 6/11/4 2/12/4 4/5/4 8/13/4
f 2/12/5 1/14/5 3/6/5 4/5/5
f 6/10/6 5/1/6 1/14/6 2/12/6
f 11/15/7 12/16/7 10/17/7 9/18/7
f 3/6/8 1/14/8 11/15/8 9/18/8
f 12/16/7 11/15/7 16/19/2 15/20/2
f 7/7/9 3/6/9 9/18/9 10/21/9
f 13/22/10 15/23/10 19/24/10 17/25/10
f 11/15/11 1/14/11 14/26/11 16/19/11
f 1/14/2 5/1/2 13/22/2 14/26/2
f 5/1/11 12/4/11 15/23/11 13/22/11
f 18/27/11 17/25/11 19/24/11 20/28/11
f 14/26/12 13/22/12 17/25/12 18/27/12
f 16/19/13 14/26/13 18/27/13 20/28/13
f 15/20/14 16/19/14 20/28/14 19/29/14
